<?xml version="1.0" encoding="utf-8"?>
<!-- Generator: Adobe Illustrator 23.0.1, SVG Export Plug-In . SVG Version: 6.00 Build 0)  -->
<svg version="1.1" xmlns="http://www.w3.org/2000/svg" xmlns:xlink="http://www.w3.org/1999/xlink" x="0px" y="0px"
	 viewBox="0 0 172.19 96.07" style="enable-background:new 0 0 172.19 96.07;" xml:space="preserve">
<style type="text/css">
	.st0{fill:#FFDD00;}
	.st1{fill:#FFFFFF;}
	.st2{display:none;}
	.st3{display:inline;}
</style>
<g id="ARTWORK">
	<g>
		<path class="st0" d="M107.62,24.02L94.55,72.05h-9.48l-9.91-31.84l-9.91,31.84h-9.42l-13.2-48.04h10.28l8.08,30.4l9.44-30.4h9.51
			l9.61,30.63l7.91-30.63H107.62z M137.82,24.02V53.6l0,0.07c0,0.04,0.21,4.07-2.39,6.83c-1.69,1.79-4.22,2.7-7.54,2.7
			c-3.31,0-5.85-0.91-7.54-2.7c-2.6-2.76-2.39-6.79-2.39-6.83l0-29.66h-4.27l-6.09,22.37v6.96c0,5.92,1.92,10.94,5.55,14.51
			c3.63,3.56,8.72,5.45,14.73,5.45c6.01,0,11.1-1.88,14.73-5.45c3.63-3.57,5.55-8.59,5.55-14.51V24.02H137.82z"/>
		<path class="st1" d="M37.21,72.05l-13.2-48.04h3.37l13.2,48.04H37.21z M49.89,72.05l-13.2-48.04h-3.37l13.2,48.04H49.89z"/>
	</g>
</g>
<g id="GUIDES" class="st2">
	<g class="st3">
	</g>
</g>
</svg>
