<?xml version="1.0" encoding="utf-8"?>
<!-- Generator: Adobe Illustrator 21.0.0, SVG Export Plug-In . SVG Version: 6.00 Build 0)  -->
<svg version="1.1" id="Layer_1" xmlns="http://www.w3.org/2000/svg" xmlns:xlink="http://www.w3.org/1999/xlink" x="0px" y="0px"
	 viewBox="47 30	340.2 55.7" width="300" style="enable-background:new 0 0 340.2 141.7;" xml:space="preserve">
  <style type="text/css">.st0{fill:#FFDD00;}
    .st1{fill:#FFFFFF;}</style>
  <g>
    <path d="M292.9,81.2c0,2.1-1.7,3.8-3.8,3.8l-238,0c-2.1,0-3.8-1.7-3.8-3.8l0-42.3c0-2.1,1.7-3.8,3.8-3.8h238
			c2.1,0,3.8,1.7,3.8,3.8V81.2z"/>
    <path class="st0" d="M73.8,52.7L73.8,52.7l-1.5-9.8h-6.4l-1.5,9.8h0l-1.3-9.8h-5.5l3.4,15.6h6.7l1.4-10.1h0l1.4,10.1h6.7l3.4-15.6
			h-5.5L73.8,52.7z M90.2,52.7h5.5v-4.1h-5.5v-1.7h5.9v-4.1H84.3v15.6h12.1v-4.1h-6.1V52.7z M112,49.3c-1.6-0.7-3.8-1.1-4.9-1.4
			c-0.6-0.2-1-0.4-1-1c0-0.5,0.4-0.9,1.4-0.9c0.8,0,1.3,0.3,1.4,1.3h5.5c0-3.6-2.9-4.8-6.8-4.8c-4.6,0-7.2,1.8-7.2,5.1
			c0,2,0.8,3.5,3.2,4.2L108,53c0.6,0.2,1,0.5,1,1.1c0,0.7-0.6,1.3-1.5,1.3c-0.6,0-1-0.2-1.2-0.5c-0.2-0.3-0.3-0.8-0.3-1.2h-5.9
			c0,4.1,3.5,5.2,7.2,5.2c4.4,0,7.5-1.6,7.5-5.4C114.8,51.6,113.9,50.2,112,49.3z M122,58.5h6.2V47.1h3.8v-4.2h-13.9v4.2h3.8V58.5z
			 M142,52.7h5.5v-4.1H142v-1.7h5.9v-4.1H136v15.6h12.1v-4.1H142V52.7z M164,50.6L164,50.6c2.3-0.6,3.1-2,3.1-3.8c0-2.9-2-4-5.3-4
			h-9.2v15.6h6v-5.5h0.7c1,0,1.4,0.3,1.5,1.1c0.2,1.3,0.4,3.3,0.8,4.5h6c-0.7-2.4-0.7-4.6-1-5.9C166.3,51.4,165.5,50.7,164,50.6z
			 M159.1,49.4h-0.5v-3h0.6c1.2,0,2,0.2,2,1.4C161.1,49,160.3,49.4,159.1,49.4z M182.5,42.9v9.4h0l-3.3-9.4h-7.4v15.6h5V49h0
			l3.3,9.5h7.4V42.9H182.5z M108.5,71.7c0,1.2-0.6,1.7-1.2,1.7c-0.6,0-1.2-0.5-1.2-1.7V61.5h-6.2v10.4c0,3.8,2.7,5.6,7.4,5.6
			c4.7,0,7.4-1.9,7.4-5.6V61.5h-6.2V71.7z M130.4,71L130.4,71l-3.3-9.4h-7.4v15.6h5v-9.5h0l3.3,9.5h7.4V61.5h-5V71z M140.5,77.2h6.2
			V61.5h-6.2V77.2z M159.2,61.1c-5.4,0-8.1,3.3-8.1,8.2c0,4.9,2.7,8.2,8.1,8.2c5.4,0,8.1-3.4,8.1-8.2
			C167.2,64.5,164.6,61.1,159.2,61.1z M159.2,73.5c-0.9,0-1.7-0.5-1.7-4.1c0-3.5,0.7-4.2,1.7-4.2c1,0,1.7,0.6,1.7,4.2
			C160.8,73,160.1,73.5,159.2,73.5z M182.5,71L182.5,71l-3.4-9.4h-7.4v15.6h5v-9.5h0l3.3,9.5h7.4V61.5h-5V71z"/>
    <path class="st1" d="M244.8,42.9v22.7c0,3.4,1,6.1,2.9,8l6.6-30.8H244.8z"/>
    <path class="st0" d="M281.7,43.8c-0.2,0-0.4-0.1-0.4-0.3c0-0.2,0.2-0.3,0.4-0.3c0.2,0,0.4,0.1,0.4,0.3h0.5c0-0.5-0.3-0.7-0.8-0.7
			c-0.5,0-1,0.2-1,0.8c0,0.4,0.4,0.6,0.8,0.6c0.2,0.1,0.5,0.1,0.5,0.3c0,0.2-0.3,0.3-0.5,0.3c-0.3,0-0.4-0.2-0.4-0.4h-0.5
			c0,0.6,0.4,0.8,0.9,0.8c0.5,0,1-0.2,1-0.8C282.5,44,282,43.9,281.7,43.8z M284.7,42.9l-0.5,1.7h0l-0.5-1.7h-0.8v2.3h0.5v-2l0,0
			l0.6,2h0.4l0.6-2l0,0v2h0.5v-2.3H284.7z M244.8,42.9h-2.6l-2.9,21.5h-0.1L236,42.9h-14l-3.2,21.5h-0.1l-2.9-21.5h-12.1l7.4,34.2
			h14.7l3.2-22.2h0.1l3.2,22.2h14.7l0.7-3.4c-1.9-2-2.9-4.7-2.9-8V42.9z M263.7,65c0,2.7-1.3,3.8-2.7,3.8c-1.4,0-2.7-1.1-2.7-3.8
			V42.9h-2.9l-6.8,31.6c2.8,2.3,7,3.5,12.4,3.5c10.3,0,16.2-4.1,16.2-12.4V42.9h-13.5V65z M192.8,42.9l7.3,34.2h2l-7.3-34.2H192.8z
			 M198.3,42.9l7.3,34.2h2l-7.3-34.2H198.3z"/>
  </g>
</svg>
