<?xml version="1.0" encoding="iso-8859-1"?>
<svg version="1.1" id="logo" xmlns="http://www.w3.org/2000/svg" xmlns:xlink="http://www.w3.org/1999/xlink" x="0px" y="0px" width="24px" height="24px" viewBox="100 0 500 500" xml:space="preserve">
<path id="icon" d="M332.282,57.723
	c30.295,0,54.854,24.559,54.854,54.854v0H167.718v225.256c0,1.104-0.895,1.998-1.998,1.998h-50.858
	c-1.104,0-1.998-0.895-1.998-1.998V112.577v0c0-30.295,24.559-54.854,54.854-54.854h0H332.282z M332.282,386.849H112.864v0 c0,30.295,24.559,54.854,54.854,54.854h164.563h0c30.295,0,54.854-24.559,54.854-54.854v0V161.593c0-1.104-0.895-1.998-1.998-1.998
	H334.28c-1.104,0-1.998,0.895-1.998,1.998V386.849z" fill="white" fill-opacity="0.8"/>
</svg>
