<?xml version="1.0" encoding="UTF-8"?>
<svg width="73px" height="64px" viewBox="0 0 73 64" version="1.1" xmlns="http://www.w3.org/2000/svg" xmlns:xlink="http://www.w3.org/1999/xlink">
    <!-- Generator: Sketch 55 (78076) - https://sketchapp.com -->
    <title>Group 7 Copy</title>
    <desc>Created with Sketch.</desc>
    <g id="Page-1" stroke="none" stroke-width="1" fill="none" fill-rule="evenodd">
        <g id="01-full-page-desktop" transform="translate(-1044.000000, -1317.000000)">
            <g id="Section-1-Module" transform="translate(125.000000, 750.000000)">
                <g id="Group-22" transform="translate(105.000000, 288.000000)">
                    <g id="Group-7-Copy" transform="translate(814.000000, 279.000000)">
                        <path d="M23.8510509,28.1472315 C21.7513453,30.0659607 19.9420246,28.1472315 19.9420246,28.1472315 L14.5587369,22.6128623 L14.2795208,22.3023165 C14.2795208,22.3023165 13.8662808,22.4686803 13.1849934,22.6128623 C12.090466,22.8346807 10.3146512,23.06759 8.34896944,22.6128623 C7.56716418,22.4354076 6.76302163,22.1470436 5.94771043,21.7034068 C4.36176262,20.8604969 2.78698345,19.45195 1.46908316,17.1672205 C1.14519241,16.6237654 1,15.9583102 1,15.3261277 L1,1.92829611 C1,0.652840286 2.22855112,-0.278797011 3.49060818,0.0761124352 L15.4187227,3.49211586 C17.6747893,4.13538923 20.8355163,6.00975474 22.45497,7.68448369 L34,19.5196046 L24.01523,19.5196046 L14.7597726,10.6679412 C14.0449792,9.9913951 12.9169459,10.0135769 12.2356584,10.7233958 C11.554371,11.4332147 11.5767083,12.5533977 12.2915017,13.2299438 L19.3389177,19.9066778 L21.2375876,21.7034068 L22.1980912,22.6128623 L22.6113311,23.0010445 L22.678343,23.06759 L23.3261245,23.7441361 C23.3261245,23.7441361 25.9172505,26.2174114 23.8510509,28.1472315" id="Fill-1" fill="#00C8C3"></path>
                        <path d="M73,25.2777778 L73,61.7222222 C73,62.975 71.9734375,64 70.71875,64 L2.28125,64 C1.0265625,64 0,62.975 0,61.7222222 L0,25.2777778 C0,24.0819444 0.9353125,23.0911111 2.1215625,23.0113889 C2.92,23.7175 3.786875,24.3325 4.71078125,24.8222222 C5.76015625,25.4030556 6.889375,25.8244444 8.03,26.0863889 C9.04515625,26.3255556 10.1173437,26.4508333 11.2009375,26.4508333 C12.0335937,26.4508333 12.8776562,26.3825 13.7445312,26.2344444 L18.1473437,30.7786111 C18.4553125,31.1088889 20.1092188,32.7375 22.6528125,32.7375 C23.725,32.7375 25.3560937,32.43 26.9757812,30.9380556 C28.2076562,29.7763889 28.8692188,28.3186111 28.880625,26.7127778 C28.880625,25.2208333 28.3103125,23.9338889 27.7171875,23 L70.71875,23 C71.9734375,23 73,24.025 73,25.2777778" id="Fill-3" fill="#00C8C3"></path>
                        <path d="M38.3193621,55.145875 L38.3193621,58 L33.5693621,58 L33.5693621,55.26175 C30.0550154,54.817375 27.4676903,53.024125 26.232037,50.189125 L26,49.649125 L30.4019445,47.77825 L30.6531302,48.31825 C31.2523714,49.784125 33.4341949,50.9035 35.6926132,50.9035 C36.6770809,50.9035 39.960517,50.729125 39.960517,48.434125 C39.960517,47.2765 38.5119753,46.544125 35.5382974,46.177375 C32.1782665,45.81175 27.0610624,45.252625 27.0610624,39.775 C27.0610624,36.477625 29.495198,34.182625 33.5693621,33.507625 L33.5693621,31 L38.3193621,31 L38.3193621,33.52675 C40.25,33.892375 42.722433,34.78 44.1124022,37.634125 L44.3827365,38.174125 L40.3277211,40.045 L40.0562604,39.582625 C39.4389969,38.56 37.5275077,37.730875 35.8086317,37.730875 C34.6315509,37.730875 31.9282073,37.942375 31.9282073,39.775 C31.9282073,40.99 33.2415817,41.35675 35.9832227,41.665 C39.5741641,42.1285 45,42.78325 45,48.434125 C45,52.522375 41.7176903,54.72175 38.3193621,55.145875" id="Fill-5" fill="#FFFFFF"></path>
                    </g>
                </g>
            </g>
        </g>
    </g>
</svg>