<?xml version="1.0" encoding="UTF-8"?>
<svg width="87px" height="64px" viewBox="0 0 87 64" version="1.1" xmlns="http://www.w3.org/2000/svg" xmlns:xlink="http://www.w3.org/1999/xlink">
    <!-- Generator: Sketch 55 (78076) - https://sketchapp.com -->
    <title>People</title>
    <desc>Created with Sketch.</desc>
    <defs>
        <polygon id="path-1" points="0.300170355 0.10046075 41.8315071 0.10046075 41.8315071 39 0.300170355 39"></polygon>
    </defs>
    <g id="Page-1" stroke="none" stroke-width="1" fill="none" fill-rule="evenodd">
        <g id="01-full-page-desktop" transform="translate(-676.000000, -1316.000000)">
            <g id="Section-1-Module" transform="translate(125.000000, 750.000000)">
                <g id="Group-22" transform="translate(105.000000, 288.000000)">
                    <g id="People" transform="translate(446.000000, 278.000000)">
                        <path d="M56,12.5 C56,5.60287241 50.4169218,0 43.4993042,0 C36.5830782,0 31,5.60287241 31,12.5 C31,19.3971276 36.5830782,25 43.4993042,25 C50.4169218,25 56,19.3971276 56,12.5" id="Fill-1" fill="#00C8C3"></path>
                        <g id="Group-5" transform="translate(23.000000, 25.000000)">
                            <mask id="mask-2" fill="white">
                                <use xlink:href="#path-1"></use>
                            </mask>
                            <g id="Clip-4"></g>
                            <path d="M41.7842097,9.45594325 C42.3085323,4.46173325 38.406629,0.10046075 33.4019839,0.10046075 L33.0344032,0.10046075 C30.0951452,3.40639325 25.807629,5.49975075 21.0651452,5.49975075 C16.3240484,5.49975075 12.0365323,3.40639325 9.09727419,0.10046075 L8.72969355,0.10046075 C3.72504839,0.10046075 -0.176854839,4.46173325 0.347467742,9.45594325 L1.65966129,21.7136107 C2.72633871,31.4381958 10.9171452,39.0001333 20.8556935,39.0001333 L21.2759839,39.0001333 C31.2145323,39.0001333 39.4039516,31.4381958 40.4720161,21.7136107 L41.7842097,9.45594325 Z" id="Fill-3" fill="#00C8C3" mask="url(#mask-2)"></path>
                        </g>
                        <path d="M82,8.5 C82,3.81048986 78.2035296,0 73.5,0 C68.7964704,0 65,3.81048986 65,8.5 C65,13.1895101 68.7964704,17 73.5,17 C78.2035296,17 82,13.1895101 82,8.5" id="Fill-6" fill="#00C8C3"></path>
                        <path d="M86.9684027,22.4907403 L86.08729,31.002131 C85.3613417,37.7490487 79.8433039,43 73.1449075,43 L72.853974,43 C70.3450193,43 67.9912291,42.2616064 66.0004131,40.9793495 L66.7152781,34.1296869 C67.0574713,30.7349942 65.947768,27.3622203 63.6674038,24.8593536 C62.3803697,23.4442133 60.7622255,22.3989548 59,21.7728956 C59.0526451,18.6152012 61.5505166,16 64.6829001,16 L64.9322717,16 C66.9120045,18.2960069 69.8060997,19.7522452 72.9994407,19.7522452 C76.1941671,19.7522452 79.0868769,18.2960069 81.0679952,16 L81.3159813,16 C84.6880386,16 87.3202936,19.024811 86.9684027,22.4907403" id="Fill-8" fill="#00C8C3"></path>
                        <path d="M5,8.5 C5,3.81048986 8.79647039,0 13.5,0 C18.2035296,0 22,3.81048986 22,8.5 C22,13.1895101 18.2035296,17 13.5,17 C8.79647039,17 5,13.1895101 5,8.5" id="Fill-10" fill="#00C8C3"></path>
                        <path d="M0.0315972941,22.4907403 L0.91271004,31.002131 C1.63865828,37.7490487 7.15669612,43 13.8550925,43 L14.146026,43 C16.6549807,43 19.0087709,42.2616064 20.9995869,40.9793495 L20.2847219,34.1296869 C19.9425287,30.7349942 21.052232,27.3622203 23.3325962,24.8593536 C24.6196303,23.4442133 26.2377745,22.3989548 28,21.7728956 C27.9473549,18.6152012 25.4494834,16 22.3170999,16 L22.0677283,16 C20.0879955,18.2960069 17.1939003,19.7522452 14.0005593,19.7522452 C10.8058329,19.7522452 7.9131231,18.2960069 5.93200482,16 L5.68401869,16 C2.31196141,16 -0.320293645,19.024811 0.0315972941,22.4907403" id="Fill-12" fill="#00C8C3"></path>
                    </g>
                </g>
            </g>
        </g>
    </g>
</svg>