<?xml version="1.0" encoding="UTF-8"?>
<svg width="62px" height="63px" viewBox="0 0 62 63" version="1.1" xmlns="http://www.w3.org/2000/svg" xmlns:xlink="http://www.w3.org/1999/xlink">
    <!-- Generator: Sketch 55 (78076) - https://sketchapp.com -->
    <title>Globe</title>
    <desc>Created with Sketch.</desc>
    <defs>
        <polygon id="path-1" points="0 0.967292308 62 0.967292308 62 62.9999031 0 62.9999031"></polygon>
    </defs>
    <g id="Page-1" stroke="none" stroke-width="1" fill="none" fill-rule="evenodd">
        <g id="01-full-page-desktop" transform="translate(-689.000000, -1038.000000)">
            <g id="Section-1-Module" transform="translate(125.000000, 750.000000)">
                <g id="Group-22" transform="translate(105.000000, 288.000000)">
                    <g id="Globe" transform="translate(459.000000, 0.000000)">
                        <path d="M15.7790471,13 C15.7760471,12.9316637 15.7760471,12.8759156 15.7910471,12.8534366 C15.8880471,12.6789991 16.0380471,12.4155446 15.6690471,12.4991667 C15.4950471,12.5369315 15.6070471,12.2815695 15.5710471,12.1745692 C15.5610471,12.1341069 15.5200471,12.0226108 15.4070471,12.0055267 C15.2980471,11.9875435 15.1990471,12.0172158 15.0950471,12.0405941 C15.4570471,12.2617879 15.7060471,12.5980745 15.7790471,13" id="Fill-1" fill="#00C8C3"></path>
                        <path d="M14.5475,11.511 C14.5665,11.484 14.5725,11.469 14.5895,11.441 C14.5285,11.455 14.4735,11.469 14.4105,11.475 C14.4585,11.494 14.4955,11.534 14.5435,11.559 C14.5445,11.543 14.5425,11.54 14.5475,11.511" id="Fill-3" fill="#00C8C3"></path>
                        <path d="M15.6885,13 C15.6685,13.3865878 15.5145,13.7337278 15.2665,14 C15.4445,13.9911243 15.5795,13.9526627 15.5845,13.9349112 L15.7335,13.2248521 C15.7305,13.1903353 15.7115,13.1489152 15.7065,13.1153846 C15.7065,13.117357 15.6985,13.0641026 15.6885,13" id="Fill-5" fill="#00C8C3"></path>
                        <path d="M15.489,10.449 C15.458,10.492 15.429,10.528 15.407,10.551 C15.489,10.537 15.531,10.531 15.593,10.52 C15.554,10.5 15.522,10.469 15.489,10.449" id="Fill-7" fill="#00C8C3"></path>
                        <path d="M38.592,12.5365 L38.592,12.5305 L38.587,12.5305 C38.566,12.4835 38.541,12.4435 38.521,12.4015 C38.482,12.4345 38.442,12.4745 38.404,12.5085 C38.42,12.5365 38.436,12.5695 38.455,12.5985 C38.497,12.5865 38.524,12.5785 38.548,12.5695 C38.582,12.5635 38.596,12.5535 38.596,12.5445 L38.593,12.5365 L38.592,12.5365 Z" id="Fill-9" fill="#00C8C3"></path>
                        <g id="Group-13">
                            <mask id="mask-2" fill="white">
                                <use xlink:href="#path-1"></use>
                            </mask>
                            <g id="Clip-12"></g>
                            <path d="M30.9980625,0.967195385 C13.8783125,0.967195385 0,14.8475492 0,31.9806415 C0,49.1137338 13.8792813,62.9999031 30.9980625,62.9999031 C48.1168437,62.9999031 62,49.1137338 62,31.9806415 C62,14.8475492 48.1168437,0.967195385 30.9980625,0.967195385" id="Fill-11" fill="#00C8C3" mask="url(#mask-2)"></path>
                        </g>
                        <path d="M55.3898627,17.7456105 C56.0114706,18.8868065 56.0027155,18.9475194 55.9994324,18.9969129 C55.9852055,18.9969129 55.9720729,18.9969129 55.9698841,19 C55.8932775,18.9475194 55.3712582,18.2055876 55.3712582,18.1973554 C55.241027,18.0090426 55.1644204,17.8073524 55.0429442,17.6190396 C54.8109356,17.2712269 54.4968486,16.9872142 54.2790669,16.6332273 C54.2199704,16.5498758 54.0426808,16.2545437 54,16.036389 C54.0032831,16.0250697 54.0032831,16.0106632 54.0032831,16.0055181 C54.1389863,15.9231955 54.7748211,16.786553 54.880976,16.9573723 C55.2858966,17.5521525 55.2858966,17.5521525 55.3898627,17.7456105" id="Fill-14" fill="#00C8C3"></path>
                        <path d="M18.2663352,7.66015458 C18.2933352,7.53915458 18.3343352,7.50815458 18.3783352,7.46915458 C18.5593352,7.33615458 18.7053352,7.28815458 18.7223352,7.29915458 C18.8243352,7.38415458 18.3993352,7.65115458 18.3943352,7.65415458 C18.2443352,7.74215458 18.2583352,7.68815458 18.2663352,7.66015458" id="Fill-16" fill="#00C8C3"></path>
                        <path d="M16.7037977,56.9238567 L16.7018795,56.9238567 C16.698043,56.9238567 16.698043,56.9238567 16.5426678,56.8457858 C13.1723676,54.9923238 11.5744962,52.0911691 10.3525946,49.2362787 C9.25058124,46.6888528 7.35250952,44.6050334 6.30228792,42.0277285 C6.2687192,41.9515853 6.24665975,41.8407438 6.23035494,41.7568898 C5.98482368,40.6744989 6.68593052,39.6643959 6.4614996,38.5877879 C6.23610958,37.4880479 5.07271342,36.9348045 4.89336051,35.8244622 C4.88568766,35.7888002 4.19800831,33.051498 3.3520764,33.09969 C2.49751252,31.539235 2.36995136,31.3040583 2.51573555,27.8168897 C2.48792146,28.1889314 2.41598847,28.5474795 2.24334931,28.8963891 C1.05981191,24.1099658 4.37736122,18.4551237 8.21378714,11.9077669 C8.02196584,12.1063177 7.82438991,12.3039046 7.62681397,12.4966724 C7.54049439,12.6238991 7.48966175,12.7270299 7.50117102,12.7838964 C7.51939405,12.8744972 7.26523083,13.1742511 7.20288891,13.2349729 C7.20001159,13.2185876 7.19713427,13.1964193 7.19233874,13.1858171 C7.16644286,13.1916002 7.13479235,13.2022024 7.11656933,13.2128046 C7.0973872,13.1752149 7.07053221,13.1395529 7.29784045,12.8581119 C7.31126794,12.839799 7.32661364,12.8205222 7.34100024,12.8022093 C7.33236828,12.8147392 7.32277722,12.8263053 7.31030883,12.839799 L7.34100024,12.8012455 L7.34100024,12.8022093 C7.34291845,12.7993178 7.34579577,12.7973901 7.34771399,12.7925709 C7.35730505,12.7819687 7.36977344,12.7665473 7.37552807,12.7578727 C7.37840539,12.7549812 7.38416003,12.7520897 7.38416003,12.7463066 C7.47911157,12.630646 7.5711858,12.5159492 7.65175074,12.4128184 C7.645037,12.4234207 7.63832325,12.4320952 7.6306504,12.4398059 C7.64024146,12.4263122 7.6459961,12.4234207 7.65270985,12.4128184 C7.99415175,11.9974039 8.23680569,11.7149992 8.60126615,11.3352467 C8.95613555,10.9497112 9.3340235,10.556465 9.76370321,10.143942 C9.78959908,10.1150268 9.81549496,10.0890031 9.81549496,10.0890031 C9.86536849,10.035992 9.93826059,9.97045098 9.99292966,9.91840368 C10.1463867,9.77190019 10.1703644,9.75358725 10.1742008,9.75069574 L10.176119,9.74491271 C10.1876283,9.737202 10.1953011,9.72852745 10.2077695,9.71792522 C10.2509293,9.67551631 10.2979255,9.63117973 10.3430035,9.59166234 L10.4379551,9.50395301 C10.4974197,9.45576107 10.5540069,9.39503923 10.6115533,9.34395578 L10.653754,9.30347455 L10.9079172,9.08564699 L10.8992853,9.0885385 L11.0095825,8.99793766 C11.0095825,8.99311846 11.0124598,8.99119079 11.0124598,8.99119079 C11.0153372,8.98829927 11.0182145,8.98829927 11.0210918,8.98540775 C11.0220509,8.98348008 11.0268464,8.98348008 11.0268464,8.98058856 C11.0297238,8.98058856 11.0326011,8.97769704 11.0326011,8.97769704 C11.0383557,8.97480553 11.0402739,8.97191401 11.0441104,8.96902249 C11.0402739,8.96902249 11.0402739,8.96902249 11.0402739,8.97191401 C11.0345193,8.97480553 11.0345193,8.97480553 11.0326011,8.97769704 C11.0297238,8.98058856 11.0268464,8.98348008 11.0210918,8.98540775 C11.0210918,8.98829927 11.0182145,8.98829927 11.0182145,8.98829927 C11.0326011,8.98058856 11.0537014,8.96613098 11.0700062,8.95456491 L11.3539017,8.70685835 C11.3136193,8.74733958 11.2915598,8.77143555 11.1275526,8.91022833 C11.1352255,8.91022833 11.148653,8.89577075 11.1534485,8.88998772 L11.4344667,8.64613651 L11.5227045,8.56228253 C12.473179,7.77771777 12.6227996,7.728562 12.8798402,7.63699731 C12.7637883,7.74301958 12.6659594,7.82976507 12.5882718,7.90108914 C12.5882718,7.89819762 12.5969037,7.89819762 12.5969037,7.89819762 C12.5969037,7.90108914 12.6026584,7.90398065 12.6055357,7.90590833 C12.5882718,7.97626856 12.5642941,8.05241182 12.1010457,8.41867056 C12.058845,8.46493482 12.0166443,8.51890979 11.9715663,8.58734234 C11.9610162,8.64902802 11.8430461,8.83312123 11.3452698,9.50395301 C11.4411804,9.45865259 11.5706598,9.39503923 11.6723251,9.35648568 C11.7356261,9.39022004 11.8200275,9.44419501 11.8852467,9.4788932 C11.9581388,9.45768875 12.0530904,9.43070127 12.1288598,9.41431601 C12.1058412,9.44130349 12.0895364,9.47118249 12.0693952,9.49816998 C12.1605103,9.48467624 12.2439526,9.44419501 12.3341086,9.44419501 C12.3456178,9.44419501 12.3523316,9.45286956 12.3648,9.45576107 C12.4444058,9.34395578 12.5949855,9.18395854 12.7119965,9.07311708 C12.86929,8.89287923 13.0572749,8.74733958 13.2788285,8.65481105 C13.5483374,8.47264553 13.8447013,8.29337152 13.896493,8.35602104 C13.9348573,8.42445359 13.8811473,8.4745732 13.8619652,8.53529505 L13.8629243,8.53529505 C14.0058312,8.53529505 14.1324332,8.58155931 14.2638308,8.6162575 C14.3856373,8.48035624 14.5256669,8.33963578 14.6119865,8.27409474 C14.7884621,8.14397651 14.9189005,8.08132699 15.0090565,8.05530334 C15.0359115,8.01385827 15.057971,7.97144937 15.0867442,7.93578733 C15.0100156,7.96566633 14.9582239,7.98205159 14.9553466,7.98205159 C14.9553466,7.98205159 14.8383356,8.07072476 14.7884621,8.1140975 C14.5400535,8.33963578 14.32905,8.38397236 14.3156226,8.38397236 C14.3386411,8.27987777 14.4498975,8.2557818 14.5007301,8.17771086 C14.4988119,8.17481935 14.491139,8.17481935 14.491139,8.17192783 C14.4642841,8.17481935 14.4345518,8.19024077 14.4038604,8.17771086 L14.4038604,8.17192783 C14.4038604,8.17192783 14.6129456,7.82976507 14.7692799,7.75073029 C14.7721572,7.75073029 15.2488332,7.62061205 15.5461562,7.56085405 C15.7638733,7.44422956 16.0007726,7.36230326 16.2626087,7.36230326 C16.292341,7.36230326 16.3172778,7.37579701 16.3498874,7.37579701 C16.4112702,7.35652023 16.4764895,7.345918 16.5522589,7.35941175 C16.5608908,7.36230326 16.562809,7.36230326 16.5676046,7.36808629 C16.5685637,7.38447155 16.571441,7.40278449 16.5685637,7.42591662 C16.7028386,7.45290411 16.832318,7.48181927 16.9502881,7.5396496 C17.0634626,7.46639785 17.1833509,7.40374833 17.2619977,7.4278443 C17.2754252,7.43555501 17.2974846,7.45290411 17.2754252,7.50205988 C17.2504884,7.55025182 17.2217152,7.58784153 17.1833509,7.62446741 C17.1737599,7.63699731 17.1564959,7.65627409 17.1459458,7.67169551 C17.3051575,7.78350081 17.4327186,7.92422127 17.5420568,8.09000153 C17.6264581,8.01482211 17.697432,7.95120875 17.6993502,7.94831724 C18.4819811,7.34399033 18.598033,7.38254388 18.6354381,7.39507378 C18.6565385,7.40278449 18.6690069,7.4278443 18.6824344,7.43941036 L18.6872299,7.43941036 C18.8339732,7.55603486 18.3812749,8.02831585 18.0206509,8.28566081 C17.8969261,8.37626165 17.8048519,8.42445359 17.7223688,8.46589866 C17.7281234,8.48710311 17.7300416,8.5092714 17.7348372,8.52758434 C17.8038928,8.4919223 17.8748667,8.45433259 17.9400859,8.41095985 C18.1194389,8.29722687 18.2671412,8.14494034 18.4637581,8.05819486 C18.5577505,8.01674979 18.5395275,8.17481935 18.5807691,8.230722 C18.7956089,8.23650503 18.9576979,8.09000153 19.1523965,8.01674979 C19.2588573,7.96566633 19.2837941,7.95410027 19.2837941,7.89241459 C19.219534,7.88374004 18.9912666,7.93289582 18.9845529,7.93289582 C18.8819285,7.9598833 18.8157502,7.9772324 18.7821814,7.9300043 C18.7821814,7.9300043 18.7716313,7.5223005 18.9624934,7.36905013 C19.3614817,7.04616415 19.8448714,7.00182756 19.8966632,7.0326704 C19.886113,7.09821144 19.886113,7.16568015 19.886113,7.23314887 C20.0012058,7.16568015 20.1057484,7.09821144 20.2006999,7.04905566 C20.2054954,7.04905566 20.634216,6.88038388 20.5220006,7.16857167 C20.5220006,7.1791739 20.5315916,7.18688461 20.5373463,7.19459532 C20.6466844,7.1791739 20.7262903,7.07797082 20.8404239,7.08086234 C20.8989294,7.08086234 20.8691971,7.16278864 20.886461,7.20037835 C20.9785353,7.21387209 21.1041782,7.08953689 21.1626837,7.2090529 C21.5261851,7.16857167 21.5261851,7.16857167 21.588527,7.2090529 C21.588527,7.2090529 21.83214,7.33917113 21.976006,7.2986899 C21.9788833,7.29290687 21.9875153,7.29290687 21.9961472,7.29001535 C21.949151,7.3632671 21.9299689,7.40374833 21.9692923,7.46639785 C22.0105338,7.54061343 22.0383479,7.5820585 21.8599541,7.72181512 C21.7928167,7.77964545 21.7256792,7.82205436 21.6595009,7.85193336 C21.5300215,7.91651056 21.3679325,7.89241459 21.2365349,7.96277482 C20.9200298,8.11988054 20.634216,8.33963578 20.3071607,8.48324775 C20.2448188,8.51601827 20.2448188,8.51601827 19.3892958,8.65481105 C19.1591103,8.69240077 19.0190807,8.87167478 18.8330141,8.97480553 C18.5558323,9.1357666 18.2479591,9.22733129 17.9669409,9.37961781 C17.8480117,9.44419501 17.7415509,9.52804898 17.6331719,9.60708376 C17.3790086,10.119846 16.8678049,10.478394 16.2616496,10.478394 C16.2376719,10.478394 16.2127352,10.4649003 16.1887575,10.4620088 C16.1858802,10.4803217 16.1973895,10.50249 16.22904,10.5188752 C16.274118,10.5410435 16.4879987,10.6971854 16.4927943,10.8745317 C16.4937534,10.9313982 16.3076867,11.4981354 16.3076867,11.5010269 C16.1379249,11.8846348 16.1379249,11.8846348 16.1801256,11.9733079 C16.4477163,12.5342621 16.4227795,12.6788379 16.2328764,13.0210007 C16.1110699,13.2301537 16.0410551,13.3602719 16.1350475,13.4277407 C16.3498874,13.5954486 16.3498874,13.5954486 16.3498874,13.6311106 C16.3671513,13.7853248 16.517731,13.8971301 16.517731,14.0648381 C16.517731,14.0947171 16.517731,14.1814626 16.3498874,14.4176031 C16.0381778,14.8715711 15.6871448,14.8628966 15.6823493,14.8628966 C15.436818,14.8301261 15.7984012,14.4889271 15.6113754,14.3337491 C15.4512046,14.3530259 15.355294,14.6113347 15.3725579,14.7279592 C15.3994129,14.9910871 15.1078445,15.9250469 14.7500978,15.8546867 L14.7280383,15.8517952 C14.4901799,15.7477006 14.4249607,16.0628759 14.2340985,16.067695 L14.2312212,16.0648035 C14.1449016,16.0050455 14.0748868,15.9587813 14.0125449,15.8431206 C13.8255191,15.499994 14.0748868,15.1212054 13.9195116,14.7790426 C13.8504559,14.6354306 13.6384934,14.6354306 13.4850363,14.6026601 C13.4696906,14.6026601 13.4533858,14.6113347 13.4409174,14.6113347 C13.2443006,14.6113347 13.0649477,14.5650704 12.8913494,14.4995294 C12.8836766,14.5110954 12.8836766,14.5216977 12.8702491,14.5322999 C12.7541972,14.6672373 12.4664653,14.8089216 12.4664653,14.8089216 C12.4213873,14.8301261 12.3667182,14.8628966 12.3484952,14.7983194 C12.0789862,14.6788034 12.0789862,14.6788034 12.0415811,14.6190454 C11.9226519,14.4262776 12.0645997,14.2171246 12.2679302,14.0445975 C12.2401161,14.0089354 12.2161385,13.9684542 12.1921608,13.9327922 C11.3356787,14.7713319 10.1905056,15.3428883 9.79823104,16.6026256 C9.90181454,16.6951541 9.90181454,16.6951541 10.0341712,19.158726 C10.6575904,17.7833281 12.2688893,14.6682012 13.6826123,15.4624043 C13.6902851,15.6850511 13.6902851,15.6850511 13.3095199,17.269602 C13.6365752,17.1992418 13.9060841,16.9871972 14.2225892,16.892741 C14.2312212,16.9052709 14.4076968,20.4656914 14.1928569,21.0083326 C12.6669185,21.4883243 12.6669185,21.4883243 12.401246,21.4941073 C12.0914546,21.5056734 11.6569794,22.093615 12.0636405,22.8820352 C12.1912017,22.8058919 12.3878185,22.7538446 12.5316845,22.7567361 C12.6717141,23.5837098 11.2340134,24.0347863 10.941486,24.0376778 C10.8369434,23.9210534 10.6911592,23.7668392 10.5799028,23.6569615 C9.99580698,24.6969436 8.54276066,24.9523608 8.26653799,26.2602901 C8.0900624,27.0930468 7.09067345,27.1142512 6.77320921,27.814962 C6.42409445,28.5744669 6.82404185,29.4293919 6.47396798,30.1975714 C6.43752194,30.2814254 6.36846627,30.3874477 6.32530648,30.4684101 C6.24761886,30.4847954 6.14595357,30.4982891 6.06634773,30.5098552 C5.91193159,28.1947145 5.91193159,28.1947145 5.37195464,28.0568855 C5.25878008,28.161944 5.05640861,28.2544725 4.90582889,28.2429064 C4.75620828,27.8438772 4.73223062,27.8226727 4.43490761,27.6819522 C2.98473861,29.5922807 4.00810523,31.9527218 4.02632825,31.9691071 C4.07812,31.9883839 4.15293031,32.011516 4.20759937,32.0346481 C4.53849111,31.3156244 4.53849111,31.3156244 4.83389591,31.2664686 C5.51198419,31.9806732 4.74757632,33.0033061 5.3662,33.7252213 C6.05963399,34.5415928 5.58487628,35.7888002 6.4164216,36.5579435 C6.65236179,36.5415582 6.65236179,36.5415582 7.37456897,36.0683134 C7.47623425,36.1801187 7.63928236,36.31602 7.77163905,36.3883079 C7.83302187,36.3449351 7.91550502,36.2890325 7.97976516,36.2475874 C8.94750359,36.9348045 8.94750359,36.9348045 9.3627967,36.8933594 C13.4121443,40.6455837 13.0802934,41.4735212 12.9018996,41.9130317 C12.9421821,41.9159232 17.0164664,43.3491515 17.2034922,45.4493562 L16.6222736,49.5591647 C16.3278279,50.2454179 15.553829,49.9283149 15.1020899,50.2897545 C15.1855321,50.794806 15.3677624,51.2776892 15.3802307,51.7962345 C15.319807,51.853101 15.2402012,51.918642 15.1778593,51.9697255 C15.1241493,52.0844223 15.1241493,52.0844223 15.0052201,52.6097144 C14.8498449,52.5971845 14.6493916,52.5615225 14.4978528,52.5335711 C15.0359115,53.3036783 15.0359115,53.3036783 14.6033545,53.5677701 C14.688715,54.1826993 14.8891682,55.618819 16.7392846,56.7098845 C16.8303997,56.7648233 16.9119238,56.9055438 16.9598791,57 C16.8802733,56.9787955 16.7795671,56.9383143 16.7037977,56.9238567" id="Fill-18" fill="#FFFFFF"></path>
                        <path d="M12.5594278,15.6086172 C12.5234278,15.6536172 12.4874278,15.6956172 12.4554278,15.7436172 C12.1554278,15.7066172 12.3754278,15.3686172 12.4844278,15.2956172 C12.5594278,15.2396172 12.6054278,15.2556172 12.6354278,15.2706172 L12.6404278,15.2706172 C12.7204278,15.3036172 12.7304278,15.3666172 12.5594278,15.6086172" id="Fill-20" fill="#00C8C3"></path>
                        <path d="M17.7557265,56.6661058 C17.7187265,56.6601058 17.6257265,56.6131058 17.5647265,56.5731058 C17.5507265,56.6021058 17.5687265,56.6211058 17.5647265,56.6381058 C17.5307265,56.6571058 17.3817265,56.5621058 17.3307265,56.5201058 C17.2787265,56.4701058 17.2107265,56.3591058 17.2117265,56.3401058 C17.2167265,56.3251058 17.2527265,56.3401058 17.2717265,56.3401058 C17.2787265,56.3401058 17.6597265,56.4551058 17.7037265,56.5091058 C17.7387265,56.5481058 17.8397265,56.6751058 17.7557265,56.6661058" id="Fill-22" fill="#00C8C3"></path>
                        <path d="M21.3277703,15.6114133 C20.7337507,15.6724878 19.8788705,16.7909152 19.8603074,16.8481725 C19.8095031,16.9579158 19.3551953,17.9790056 18.9477838,18 C18.9047956,18 18.7338195,17.9866399 18.5247403,17.6564558 C18.4612349,17.5619811 18.4319247,17.5762954 18.3342241,17.6106499 C17.985433,17.7347075 18.0000881,16.9579158 18.0000881,16.9521901 C18.0186512,16.56284 18.2883048,16.1973471 18.0929036,15.7908197 C18.4094536,14.6409008 18.8852555,14.354614 19.0914037,14.2286478 C19.1275529,14.0425613 19.2291616,13.9347266 19.5076083,13.7705888 C19.4743901,13.4194102 19.4558269,13.2256895 19.7137565,13.1331234 C19.7450207,13.098769 19.7801929,13.0501002 19.8114571,13.0128829 C19.789963,12.8869167 19.5779527,12.8468365 19.631688,12.6779273 C19.7127795,12.4221777 20.0019733,12.2952572 20.0732947,12.0271018 C20.0732947,12.0213761 20.119214,11.849604 20.3595574,11.2665331 C20.3839826,10.9869262 20.2716269,10.8122912 20.2716269,10.8122912 C20.0097893,10.7960683 19.7518597,10.8390114 19.4939302,10.8275599 L19.4802521,10.8275599 C19.1383,10.7235423 19.2692188,10.5622674 19.3884135,10.4009925 C19.5613436,10.171963 19.5945618,10.0192766 19.6434121,9.80742437 C19.6590442,9.75589274 19.6766303,9.68336673 19.7733539,9.59461781 C19.8397903,9.52781754 19.9941572,9.37990266 20.6565673,9.39039985 C20.9858183,9.39326272 20.9858183,9.39326272 21.5212175,8.893215 C21.6716764,8.69472278 22.09472,8.49050482 22.2178228,8.43133887 C22.3829368,8.35785857 22.5656369,8.40175589 22.7307509,8.33495563 C23.0981051,8.40748163 23.0981051,8.40748163 23.4625284,8.36072144 C23.4722984,8.37503579 23.4869535,8.38839584 23.4977006,8.40175589 C23.4781605,8.46664758 23.4781605,8.47237332 23.3628738,8.64319114 C23.3726438,8.66323122 23.3824139,8.67849986 23.3872989,8.69472278 C23.403908,8.69472278 23.4273561,8.69472278 23.4449423,8.70044852 C23.4449423,8.71380857 23.4449423,8.74148297 23.4537353,8.75961447 C23.9695945,8.42656742 23.9695945,8.42656742 24.0467779,8.43229316 C24.1093063,8.55062506 24.0467779,8.67372841 24.067295,8.79206031 C24.0760881,8.79206031 24.1014903,8.78442599 24.1171223,8.78442599 C24.4737295,8.12310335 24.723843,8.30346407 24.7658543,8.41416166 C24.8948191,8.26338391 24.9710256,8.18322359 25.0648181,8.12310335 C25.0980363,8.15077775 25.0980363,8.15077775 25.1263695,8.38457868 C25.5064248,8.03340013 26.0525711,8.00286287 26.1541798,8 C26.8888882,8.1002004 26.7501534,8.36644718 26.6426827,8.55921367 C26.6544068,8.56971085 26.6690619,8.58593377 26.680786,8.59356809 C27.1331397,8.33018418 27.1233697,8.57257372 27.1077376,8.83118618 C26.9328535,9.09170722 26.5938324,9.14514744 26.3964772,9.37322264 C26.4091783,9.39135414 26.4248104,9.41043993 26.4306725,9.41902853 C26.7736015,9.32646245 26.7736015,9.32646245 26.8888882,9.23294207 C27.4956089,8.97242103 27.7291134,9.06403283 27.9733649,9.14991889 C28.0271002,9.30069663 27.989974,9.42761714 27.9460087,9.50491459 C27.7232513,9.88376754 27.1927371,9.83796164 26.9572787,10.1977288 C26.7218202,10.5679931 26.7687165,11.0327321 26.512741,11.3953622 C26.362282,11.5995801 26.1668808,11.7694436 26.0447551,11.9917931 C25.5972864,12.8038935 25.5972864,12.8038935 25.4585515,12.8706938 C25.1898749,12.9794828 25.0716572,12.502338 24.8156816,12.6826987 C24.5606831,12.8706938 24.8625779,13.1254891 24.7844174,13.3382956 C24.7531532,13.3545186 24.709188,13.3669243 24.6730387,13.3783758 L24.6671767,13.3783758 C24.1347085,13.2600439 24.1347085,13.2600439 23.9441923,13.3173013 C23.9793645,13.606451 23.9793645,13.6551198 24.1562026,13.6742056 C24.5430969,13.7171486 24.5430969,13.7171486 24.6173494,13.8078061 C24.7257971,13.9519038 24.4766605,14.4910774 24.3369487,14.5712377 C24.2431561,14.6170436 23.7995954,14.8107644 23.6882167,14.8498903 C23.2475871,15.000668 22.74736,14.8756561 22.3350635,15.1438114 C21.5642058,15.6524478 21.5642058,15.6524478 21.3277703,15.6114133" id="Fill-24" fill="#FFFFFF"></path>
                        <path d="M56.4655,39.5176667 C56.4755,39.5116667 56.4865,39.4926667 56.4995,39.4836667 C56.5135,39.4806667 56.5195,39.4836667 56.5345,39.4836667 C56.5075,39.4926667 56.4835,39.5036667 56.4655,39.5176667" id="Fill-26" fill="#00C8C3"></path>
                        <path d="M56.6428506,29.580759 C56.6399436,29.5885769 56.3821866,30.031266 56.2998206,30.3146653 C56.2164856,30.5814514 55.8598894,30.4964317 55.7562052,30.7309689 C55.6883744,30.8843954 55.6389548,31.3241528 55.7697713,31.6544595 C56.2988516,33.4809187 56.2988516,33.4809187 56.2717193,34.1327369 C56.2659052,34.3750921 55.911247,35.5692778 55.6437999,35.7314995 C55.482944,35.6542976 55.5129833,35.4783946 55.4480595,35.3542853 C55.2503812,35.3308316 55.2503812,35.3308316 55.0468888,34.7884641 C55.0207255,34.7777145 54.9935932,34.7611014 54.9693679,34.7523063 C54.8521175,34.9360271 54.6883546,35.3464674 54.9451426,36.0657151 C54.9538637,36.0842826 55.4664708,37.5950937 55.4141441,38.0133519 C55.4141441,38.0133519 55.3627865,38.414997 55.3027078,38.4863354 C55.2726685,38.5244477 55.2096827,38.5879682 55.1883645,38.5684234 C55.1883645,38.5684234 54.9868101,38.414997 54.9286694,38.2820925 C54.8831259,38.1716645 54.8870019,38.042669 54.8424274,37.9302866 C54.7968839,37.784678 54.72227,37.6498191 54.6747884,37.506165 C54.6437801,37.4152818 54.6147097,37.3273303 54.5914534,37.2393788 C54.5391268,37.0497945 54.3685808,36.4487927 54.3511386,36.3041613 C54.2232291,33.8200205 54.2232291,33.8200205 54.130204,33.3519232 C53.7484135,33.7867944 53.7484135,33.7867944 53.6612025,33.6792982 C53.6137209,33.6167549 53.5536422,33.5160993 53.5487971,33.2971978 C53.5362,32.9893676 53.5265099,32.6893553 53.366623,32.3531852 C53.2416205,32.0834673 52.9664213,31.9574035 52.8065344,31.7228662 C52.7881232,31.7228662 52.7590528,31.7199345 52.7357965,31.7199345 C52.5914138,31.9163595 52.3055555,31.8577252 52.1640798,32.0668543 C51.8588412,32.524202 51.7629091,33.085137 51.5138731,33.5718019 C51.3006906,34.1112377 50.8481623,34.5246096 50.6902134,35.0982488 C50.6330417,35.2858786 50.5070702,36.8543467 50.5070702,36.8680281 C50.490597,37.1240646 50.4789689,37.2999676 50.4295493,37.5413456 L50.4295493,37.5618676 C50.4140451,37.6136612 50.403386,37.6615459 50.3878818,37.7133396 C50.3646256,37.7954276 50.2454372,37.9254004 50.1805134,37.9136735 C50.0748911,37.9058556 50.0438828,37.8306082 49.9673309,37.6586142 C49.7037598,37.068362 49.3491016,36.5240401 49.1601443,35.9025162 C49.0302968,35.4598271 48.7851369,34.5128828 48.6010247,33.109568 C47.9188407,33.1535437 47.859731,33.1124997 47.8839563,32.524202 C47.5913148,32.5926087 47.5913148,32.5926087 47.4072027,32.4186602 C47.1765779,32.2075766 47.1552597,31.87727 46.9566123,31.6485961 C46.670754,31.9075644 46.6261794,31.9456767 46.4788897,32.0013793 C46.334507,32.0531729 46.2240397,31.9192912 46.083533,31.9515401 C45.9323673,31.9818345 45.8548463,32.1362382 45.7007735,32.1665326 C45.656199,32.1782595 45.5893372,32.1723961 45.5457317,32.1665326 C45.5428247,32.1665326 45.1174286,32.0971487 44.8557955,32.0228785 C44.5311767,31.9319953 44.4197404,31.4541256 43.9904683,31.5557584 C43.6358101,31.6407782 43.6358101,31.6407782 43.2181662,31.5039648 C42.9952936,31.4345808 42.8073054,31.308517 42.7385056,31.2694275 C42.5020668,31.0905928 42.3780333,30.9586656 42.2133014,30.6948111 C42.1968282,30.661585 42.1561297,30.5922011 42.1057411,30.5628839 C41.9720175,30.4749324 41.8896515,30.5892693 41.841201,30.6811298 C41.7869363,30.9058947 42.009809,31.3769237 42.2937293,31.5362137 C42.4041966,31.6222107 42.4167938,31.635892 42.8237786,32.2183263 C43.026302,32.5046572 43.1047919,32.6229031 43.3334786,32.5759956 C43.6561594,32.4958621 43.624182,32.0785811 43.9100404,31.9710849 C43.9914373,31.9544718 44.1493862,31.9192912 44.6687763,32.4108423 C44.8451364,32.5789274 44.9381615,32.8183508 45.1077385,32.9952311 C45.1901045,33.0773191 45.317045,33.0831825 45.3906899,33.1740657 C45.4246053,33.2209732 45.4740248,33.2893799 45.4507686,33.429125 C45.4246053,33.5972101 45.3015408,33.7897261 45.1183976,34.083875 C45.0030853,34.2607552 45.0437838,34.4777022 44.9565727,34.6496962 L44.4274925,35.422692 C44.4245855,35.4305099 43.8276744,36.1126226 43.0795976,36.6569445 C43.0611864,36.6735576 43.0350231,36.6891934 43.0117668,36.7097154 C42.9555641,36.7390326 42.8819193,36.7869173 42.8324997,36.8220979 C42.2326816,37.2374243 41.334408,37.8628571 41.0970002,37.8345172 C41.0940932,37.8315855 40.7907926,37.4660982 40.4971821,36.376477 C40.4099711,36.0520338 40.2869066,35.8536543 40.2403941,35.7686345 C40.2132618,35.7217271 40.1153916,35.5702551 39.9332175,35.3757846 C39.3682838,34.7532835 39.1037437,33.9607429 38.6628435,33.2629945 C38.4874524,32.9815497 38.4748552,32.847668 38.4700102,32.7997833 C38.4215596,32.1723961 37.9409299,31.9339498 37.8701921,31.9359043 C37.5882098,31.9554491 37.6705758,32.24178 37.6773588,32.2691427 C37.9293018,33.0773191 38.4380328,33.7633407 38.6890068,34.5636992 C38.8052881,34.927232 39.0320368,35.2487435 39.0562621,35.6445252 C39.0930845,36.0432386 39.5155735,36.2230505 39.5775903,36.6100371 C39.5814663,36.662808 39.5872804,36.7400098 39.6115057,36.789849 C39.7597644,37.1230874 40.1900055,37.1142922 40.3615205,37.41235 C40.5165623,37.6810907 40.4952441,38.0143291 40.7084266,38.2586388 C40.8033897,38.3719985 41.5979791,38.4599499 42.4080727,37.981103 C42.7511027,37.7797918 42.9294008,37.7612243 43.1028539,37.9087873 C43.1202961,37.9341955 43.1852198,38.0143291 43.1784368,38.1618921 C43.1697156,38.280138 43.1348312,38.3710212 43.1028539,38.4325873 C43.0233949,38.607513 42.9352149,38.7814615 42.8509109,38.9485693 C42.7016831,38.9661596 42.5611765,38.9847271 42.4100107,39.0013402 L42.4100107,39.0042719 C42.5524554,38.9905906 42.693931,38.9827727 42.8092434,39.0179533 C42.3838474,39.8378565 42.2549689,40.7838236 41.7297647,41.554865 C41.5669707,41.7962429 41.4623175,41.9584645 41.3033996,42.0473933 C40.7995137,42.3395876 39.6648013,43.6617916 39.6580182,43.6735185 L39.2268081,44.8090699 C38.9380427,45.706175 40.0281806,46.3003362 39.7403842,47.1935323 C39.4264245,48.1570897 39.4264245,48.1570897 38.9506399,48.6115057 C38.5785395,48.9486531 38.114383,49.1636456 37.7384066,49.4939523 C37.688987,49.5467232 37.6986771,49.6679008 37.7083672,49.7392392 C37.7112742,49.7499888 37.7025531,51.3399562 35.2490162,53.5827191 C34.9854451,53.8182336 33.0609884,54 33.0503292,54 C32.6181501,53.9912049 32.4631083,53.7087829 32.4631083,53.700965 L31.8584452,51.535404 C31.8836395,51.0370122 31.0212193,49.6229478 31.0057151,49.6121982 C29.895228,48.4893509 31.7780172,47.4251379 31.3448691,46.2553832 C31.0115292,45.3338471 30.1142246,44.7338225 29.979532,43.7047901 C29.9456166,43.438004 30.1190696,43.2894637 30.1975596,43.2288749 C30.3400042,43.1057428 30.2479482,41.8636724 30.2401961,41.8539 C30.2266299,41.8099243 30.1704272,41.7043825 30.0357347,41.6389075 C29.724682,41.4747314 29.391342,41.7894023 29.0812584,41.5773415 C28.8428816,41.4209833 28.8099352,41.0613594 28.5114797,40.9567949 C28.2508156,40.8629799 28.0376331,40.9646128 27.9019715,41.0359512 L26.7062114,41.5235933 C26.4155079,41.5861366 26.1848832,41.3437814 25.9058079,41.35844 C25.6684001,41.3799392 25.5211104,41.6066586 25.2837026,41.6222944 C25.2497872,41.6222944 25.2013366,41.6330441 25.1625761,41.6222944 C24.4842681,41.4796176 23.2691278,40.0596897 23.2623447,40.0489401 C23.1935449,39.9717382 23.1935449,39.9717382 23.0123398,39.4215528 C22.859236,39.0550883 22.859236,39.0550883 22.272984,38.6593066 C21.9919707,38.4619044 21.9919707,37.6507963 22.0035989,37.3087627 C22.0210411,36.8650964 22.3020544,36.4888595 22.3446909,36.0510565 C22.3795753,35.6670017 22.2981783,35.2780607 22.3495359,34.8881424 C22.3941105,34.5500178 22.272984,34.1894168 22.4667863,33.8620418 C23.290446,32.4616587 23.3573078,32.4206147 23.7216561,32.2163718 C24.5695411,31.7433883 24.3941501,30.7280372 24.8486164,30.0488563 L25.6470819,29.0667314 C26.0763539,28.6670408 26.4523304,29.3120183 26.8777264,29.1771594 C27.3370378,29.019824 27.7139833,28.6807221 28.1936439,28.5742031 C28.9872643,28.651405 29.7663495,28.3005763 30.5609388,28.4833199 C30.7770284,28.5292501 30.6975695,28.7364247 30.5987303,29.0354598 C30.4378744,29.4898758 30.4737278,29.6247347 30.6636541,29.8123646 C30.7605552,29.9032478 32.5464433,30.9244622 32.5580714,30.9293484 C32.9631182,31.0583439 33.1918049,30.9176215 33.2344414,30.5052268 C33.3197144,29.6745739 33.9912393,30.0488563 34.7654795,30.4807958 C34.9650958,30.5990417 35.1211067,30.5990417 35.2926217,30.5990417 C35.570728,30.5990417 35.8207329,30.7309689 36.085273,30.7964439 C36.424427,30.8736458 36.3895426,30.36255 36.6957502,30.3684134 C36.9457552,30.3811175 37.09789,30.5853604 37.3188246,30.657676 C37.610497,30.0136757 38.1512054,28.8351258 37.6599166,28.2634412 C36.6269504,28.2028524 36.5445845,28.2917811 36.3556272,28.4891833 C36.3139597,28.5360908 36.2044614,28.6162244 36.0998082,28.6318602 C35.1007574,28.8116721 35.5077422,27.2353861 34.7005557,26.9676227 C34.387565,27.2647032 34.724781,27.7689584 34.3759369,28.0543121 C34.1821346,28.2057841 33.9292226,28.2194655 33.8119722,28.1295595 C33.7286372,28.0631073 33.7286372,28.0631073 33.8022821,27.6086913 C33.8672059,27.2217047 33.3507228,27.2793618 33.197619,27.0448245 C33.0551743,26.8327637 33.1026558,26.5581596 32.9582731,26.3382809 C32.9330788,26.3021231 32.9059465,26.2473977 32.8662171,26.2141716 C31.7382877,25.1001195 31.7382877,25.1001195 31.4349872,25.2730907 C31.3758775,26.3128727 32.9262958,26.0499955 32.8817212,27.0760962 C32.8759072,27.0858685 32.6336543,28.2243516 32.1617457,27.9497476 C31.7799552,27.7279144 32.1113571,27.2617715 31.8380959,27.0008488 C31.3594043,26.5444783 30.7111356,26.3021231 30.2876776,25.7822321 C30.2169398,25.6913489 30.1878694,25.5809209 30.1365118,25.4822198 C29.2614945,26.010906 29.2614945,26.010906 29.0735063,25.9385903 C28.8167183,25.8398892 28.8167183,25.8398892 28.3409337,26.3568485 C27.690727,27.067301 27.7721239,28.4256628 26.4474853,28.5546583 L26.4377952,28.5546583 C25.6955324,28.7286068 25.6955324,28.7286068 25.1964915,28.2360785 C24.9736189,28.0269494 25.2585083,25.6991668 25.2701364,25.679622 C25.3767277,25.5418314 25.3767277,25.5418314 27.1490496,25.6913489 C27.3467279,24.8782863 27.4106827,24.6388628 26.7159015,23.9157061 C26.5773328,23.7730293 26.505626,23.4349047 26.5715188,23.3371808 C26.6209384,23.2658424 26.6509777,23.2658424 27.1345144,23.2892961 C27.1558327,23.2032991 27.1887791,23.0743036 27.2595169,23.0273962 C27.440722,22.8866738 27.6732848,23.0137148 27.8564279,22.8925372 C28.0763935,22.7527921 28.118061,22.4693928 28.3331816,22.3286705 C28.3641899,22.3169436 28.4097335,22.2983761 28.4388038,22.2837175 C28.5793105,22.2837175 28.7159411,22.2973988 28.8516027,22.3032623 C28.8651688,22.3003306 28.8651688,22.2973988 28.8738899,22.2915354 C28.7314453,22.2915354 28.6015977,22.2827403 28.4785333,22.2719906 C28.541519,22.2671044 28.541519,22.2671044 28.8254394,21.7520996 C28.8283464,21.7491679 29.1064527,21.2497989 29.6239048,21.2077777 L29.639409,21.2077777 L29.641347,21.2077777 C29.8777858,21.1638019 29.9204223,20.8970158 29.8370873,20.6546606 C29.6733244,20.2031763 29.9146082,19.6031517 30.1956215,19.5709028 C30.8923408,19.4761107 30.6471809,20.4123054 30.6471809,20.423055 C30.5396206,20.7533617 30.4766349,20.9546728 31.4427393,20.9654225 L31.4514604,20.9654225 L31.4737476,20.9624908 C31.8371269,20.9488094 32.100698,20.640002 32.4640773,20.6243662 L32.4679534,20.6243662 C32.5183419,20.6185027 32.6259022,20.6077531 32.7034231,20.4973251 C32.7160203,20.4807121 32.7305555,20.4592128 32.7363695,20.4474859 C32.8914114,20.2031763 32.9408309,19.9148908 33.0435461,19.6539681 C33.1549825,19.3803413 33.4970435,19.3402745 33.6142939,19.0695794 C33.5018886,18.8917219 33.4766943,18.7724988 33.5658433,18.4529417 C32.9049775,18.0982041 32.865248,18.0747503 32.8051693,17.9477093 C32.8051693,17.9418459 32.6607866,17.1336695 32.7906342,16.67339 C32.4466351,16.7036844 32.4466351,16.7036844 32.4727984,18.6483895 C32.4786125,19.1135551 31.9098028,20.230539 31.4737476,20.2989457 C31.4136689,20.3136042 31.2876974,20.3321718 31.1559119,20.2608334 C30.6840033,20.0155464 30.8128818,19.4546114 30.5444657,19.1076917 C30.3807027,18.8770633 30.2973677,18.9366749 30.0735261,19.1360316 C29.8777858,19.3119346 29.63844,19.4770879 29.2915339,19.1790301 C29.0085825,18.9337432 29.2682776,17.3994784 29.2769987,17.3877515 C29.2876578,17.3515937 29.2876578,17.3515937 30.0347656,16.5844613 C30.231475,16.3860818 30.231475,16.3860818 30.6462119,15.6463121 C30.9543575,15.097104 31.8865465,13.4299347 32.5377222,13.3830273 C32.7024541,13.3361198 32.7479977,13.1299224 32.9069155,13.0751971 C33.1530444,12.9921318 33.4088635,13.0390392 33.6530543,13.0097221 C34.0048055,12.9843139 34.1695374,13.1191728 34.3478355,13.2931213 C34.3536496,13.2989847 34.7916428,13.5814067 35.3711116,13.5315676 C35.3788637,13.5315676 36.167639,13.6801078 36.5494295,14.687641 C36.6618348,14.986676 37.185101,14.753116 37.1880081,14.753116 C37.4913086,14.5908943 36.7781162,14.2889276 37.0203691,14.0465724 C37.0203691,14.0446179 37.3449879,13.864806 37.5387902,14.0690489 C37.7199953,14.2557014 37.8110824,14.1814313 37.8275556,14.16775 C38.0029467,13.991847 38.0029467,13.991847 38.033955,13.9175769 C37.4990607,13.6820623 37.609528,13.3390515 37.609528,13.3361198 C37.6783278,13.1924657 37.9748453,13.275531 38.0504282,13.3361198 C38.0736845,13.3556646 38.0736845,13.3556646 38.2936501,13.8540563 C38.4186526,13.8569881 38.455475,13.8237619 38.536872,13.6967209 C38.6027648,13.8569881 38.6676885,14.0211642 38.7335813,14.1814313 C38.6676885,14.0211642 38.6027648,13.8569881 38.5504381,13.6781534 C38.6676885,13.5051821 38.7771868,13.5159317 38.965175,13.6937892 L39.0116876,13.684994 C38.9874623,13.5814067 38.9496708,13.4846601 38.9496708,13.3722776 C38.9496708,13.1983292 38.9952144,13.0331758 39.046572,12.8797493 C38.8566457,12.9227478 38.711294,12.8328419 37.9700003,12.3598583 C37.7539107,12.2064319 37.6376294,11.9611449 37.7015841,11.7901282 L37.7073982,11.7793785 C37.775229,11.6582009 37.775229,11.6582009 37.9079836,11.5536364 C37.7878261,11.3835969 37.7510037,11.2800096 37.7606938,11.1187652 C37.7887951,10.5578301 37.7887951,10.5578301 38.202563,10.1620485 C38.6424942,9.73206343 38.6424942,9.73206343 38.8392035,9.46039107 C38.9496708,9.31771422 39.3140191,9.62456718 39.4041372,9.84835484 C39.5126665,9.82392387 39.6182887,9.78190261 39.7374771,9.78190261 C40.5562918,9.78190261 41.2123125,10.4259029 41.2752983,11.2399428 C41.3470051,11.2370111 41.4497204,11.3093267 41.8596122,11.6474513 C41.8673643,11.5184558 41.7045704,11.3396211 41.8625192,11.265351 C42.0863609,11.1568775 42.2549689,11.330826 42.4497402,11.3581887 C41.9497303,10.9106133 41.7394548,10.7308014 41.8189137,10.5187406 C41.9584514,10.4610835 42.1454706,10.5744432 42.2559379,10.4004947 C42.2830702,10.4063581 42.2830702,10.4063581 42.4952837,10.4718331 C42.5010978,10.4659697 42.5117569,10.4474022 42.523385,10.4395843 C42.517571,10.3897451 42.517571,10.3897451 42.3906305,10.2969074 C41.9516683,9.96660073 41.9177529,9.71251866 42.0320962,9.64411195 L42.0350033,9.64411195 L42.0350033,9.63824852 C42.0650426,9.62456718 42.0650426,9.62456718 42.2133014,9.1936049 C42.2743491,9.01379298 42.4855936,9.1936049 42.5805567,9.06070044 C42.6861789,8.91997806 42.7414126,8.74700681 42.8237786,8.59064861 C42.7162183,8.47142549 42.609627,8.35317961 42.4972217,8.23786544 C42.4962527,8.23786544 42.4865626,8.24372887 42.4749344,8.24666059 C42.4749344,8.2495923 42.4642753,8.2495923 42.4574922,8.2495923 C42.4497402,8.25838745 42.4448951,8.25838745 42.4313289,8.26327365 C42.4313289,8.26522812 42.4206698,8.26815984 42.4119487,8.27109155 C42.4051656,8.27109155 42.4003206,8.27890946 42.3915995,8.28184118 C42.3809403,8.2847729 42.3731882,8.29063633 42.3664052,8.29356805 C42.3586531,8.29356805 42.353808,8.29943148 42.3441179,8.30236319 C42.3324898,8.30529491 42.3247377,8.30920386 42.2840392,8.32386245 C42.0776398,8.29649976 41.9691105,8.07857553 41.762711,8.04339493 C41.7772462,8.1587091 41.7772462,8.1587091 40.9245162,7.97498822 C40.9216091,8.00430539 40.909012,8.04339493 40.8828487,8.0551218 C40.8731585,8.06098523 40.1696562,7.79029011 40.320822,7.55966177 C39.8227502,7.2019924 39.7345701,7.13260845 39.7539503,7.01143085 L39.7568574,7.01143085 L39.7607334,7.01143085 L39.7607334,7.00947637 L39.8024009,7.00361294 C40.1047325,6.99579503 40.1095775,6.99872675 40.2074477,7.03195286 C40.6793563,7.20981031 41.0970002,7.49320954 41.5582496,7.67790765 C41.5514666,7.61927333 41.5330553,7.57627483 41.5330553,7.51861774 C41.5456525,7.50689088 41.5582496,7.49614125 41.5679397,7.4795282 C41.5737538,7.4795282 42.0902369,7.56259349 42.3731882,7.78540391 C42.6861789,8.03850874 42.941029,8.18704903 43.0156428,8.23004753 C43.1706847,8.32386245 43.2443295,8.10398373 43.3887122,8.11766508 C43.4681712,8.13134642 43.4681712,8.13134642 43.8877531,8.37663334 C44.2307832,8.57696727 44.4148953,8.97568067 44.7763366,9.16233326 C44.7918408,9.17601461 44.8170351,9.18774147 44.8373843,9.19653662 C44.9933952,9.25712542 45.1309948,9.14376573 45.2850676,9.14083401 C45.4643347,9.12715267 45.6096864,9.25321646 45.7870155,9.25126199 C45.8393422,9.25126199 45.8548463,9.24051236 45.9042659,9.17699184 C46.0438036,9.2893743 46.1794652,9.4056657 46.3190028,9.52391159 C46.1794652,9.4056657 46.0438036,9.2893743 45.9284912,9.14474297 C45.9507785,9.12128924 45.9691897,9.08317693 45.9876009,9.05581424 C45.7521311,8.83593553 45.6910834,8.74602957 45.7153087,8.64635122 C45.8054268,8.61898854 45.9023279,8.64635122 45.9817868,8.59064861 L46.0157022,8.58576242 C46.2666762,8.62973816 46.4488503,8.78121016 46.6378076,8.93170493 C46.8480831,8.9639538 47.014753,9.08806312 47.1736709,9.24051236 C47.2075863,9.25126199 47.2376257,9.25712542 47.269603,9.26787504 C47.2269665,9.20630901 47.1882061,9.14376573 47.1513836,9.08219969 C47.1639808,9.06363215 47.1707639,9.04701909 47.179485,9.02747432 C47.2870452,9.01379298 47.3839464,8.94245455 47.4992587,8.95613589 C47.4944137,8.94831798 47.0225051,8.36197476 46.8761844,8.3453617 C46.6998243,8.32288521 46.3829576,8.08443896 46.3131887,7.88117331 C46.3752055,7.8254707 46.5476895,7.92417181 46.9556433,8.24666059 C47.0002179,8.19975313 47.0002179,8.19975313 47.0602966,8.12548299 C47.1358795,8.14991395 47.1475076,8.14991395 47.437242,8.31213558 C47.2957663,8.18509455 47.2870452,8.17239044 47.2550679,8.1030065 C47.2812312,8.07857553 47.2812312,8.07857553 47.9982996,8.31213558 C48.0234939,8.29356805 48.0612854,8.2671826 48.0884177,8.2495923 C48.0855107,8.17336768 48.0031447,8.13134642 47.9798884,8.05414456 C48.1814428,8.09030239 48.3393917,8.23786544 48.5545122,8.22222962 C48.4895884,8.1333009 48.4895884,8.1333009 48.4702082,8.09030239 C48.4895884,8.06391695 48.5147827,8.0375315 48.539008,8.02091844 C48.4895884,7.96032964 48.4324168,7.91049047 48.3926873,7.84501548 C48.5215658,7.88703674 48.6049008,8.02091844 48.7444384,8.02678188 C48.6049008,7.83719757 48.3762141,7.73556474 48.2202033,7.55086662 C48.2279553,7.52545842 48.2318314,7.48539163 48.2318314,7.45900618 C48.2531496,7.45900618 48.2734989,7.4619379 48.287065,7.46780133 C48.2948171,7.45411999 48.3083833,7.44043865 48.3180734,7.4267573 C48.5971487,7.56161625 48.5971487,7.56161625 48.9295196,7.78931287 C48.8616888,7.72970131 48.7706017,7.6739987 48.6998639,7.60266027 C48.7706017,7.64663602 48.7706017,7.64663602 48.9828153,7.8127666 C49.0109166,7.83719757 49.0370799,7.85771958 49.0661502,7.88410502 L49.0787474,7.89192293 C49.0845615,7.89974084 49.0923135,7.89974084 49.0981276,7.90755875 C49.212471,8.00430539 49.3316594,8.1030065 49.4469717,8.19877589 L49.4828252,8.23493372 C49.5351518,8.27890946 49.5923234,8.32288521 49.6281769,8.35317961 C49.637867,8.36979267 49.6465881,8.3756561 49.6601542,8.38640572 C49.7367061,8.45188072 49.8161651,8.514424 49.894655,8.58478518 L49.9392295,8.62876092 C49.8597706,8.56230869 49.7764356,8.48803855 49.6940696,8.41670012 C49.6940696,8.41963184 49.6960077,8.41963184 49.6960077,8.41963184 L49.6931006,8.41963184 C49.8171341,8.52321914 49.9460126,8.62876092 50.065201,8.74407509 C49.9605478,8.67175943 49.8655847,8.59455757 49.7638385,8.52419638 C50.1233417,8.84668516 50.4411775,9.1379023 50.7580442,9.45452764 L50.7619202,9.45452764 L50.7667653,9.45745936 C51.5080591,10.1972291 52.2454768,11.0796756 53.5313549,12.8963624 C54.3540456,13.9908698 54.8763428,15.0120842 54.8763428,15.05606 C54.7145179,14.9446547 54.7145179,14.9446547 52.435403,11.7373573 C52.3569131,11.6279065 52.2183444,11.4324588 52.0923729,11.2751234 C52.0400463,11.2174663 51.9935338,11.1568775 51.9508973,11.1129017 C51.9053537,11.0659943 51.8636862,11.0337454 51.8375229,11.0161551 C52.2183444,11.5165013 52.2183444,11.5165013 52.2231895,11.568295 C52.1350095,11.4969566 52.0545815,11.4178002 51.9644634,11.3376666 C52.855954,12.825024 52.855954,12.825024 52.8365737,12.866068 C52.7580838,12.8826811 52.6815319,12.8641135 52.6166081,12.8944079 C52.5410252,13.0869239 52.5410252,13.0869239 52.435403,13.1367631 C52.435403,13.1582624 52.432496,13.1866023 52.435403,13.2022381 C52.5042028,13.5911791 52.8297907,13.8237619 52.9838635,14.1628638 C53.0516943,14.3104268 53.0982068,14.4736257 53.1476264,14.6329156 C53.3898793,14.9632223 53.6350392,15.2876655 53.8860131,15.6150405 C53.8889201,15.6121088 53.8976413,15.6121088 53.9073314,15.5954957 C54.0633422,15.5954957 54.2842768,15.9316658 54.7784726,16.6890258 C54.7542474,16.7271382 54.7290531,16.7574326 54.7087038,16.7984766 C54.7290531,16.7574326 54.7542474,16.7271382 54.7920388,16.7105251 C54.9499877,16.9587437 55.0071593,17.0437635 55.0507649,17.131715 C55.6757772,18.2232906 56.1186155,20.1631095 56.0333425,20.3888516 C55.9887679,20.3947151 55.9761708,20.3976468 55.8831457,20.3175132 C55.8744246,20.554005 56.2610601,21.9465701 56.2610601,21.9592742 C56.3744345,22.2807858 56.6225014,22.5377996 56.76107,22.8505159 C57.0847199,23.5990808 56.9500273,23.9020248 56.842467,23.8600035 C56.6661069,23.7808472 56.0585368,22.5729802 56.0517537,22.5573443 C55.9771398,22.3775324 55.9403174,22.2895809 55.8414782,22.2485369 C55.7678333,22.3091257 55.7804305,22.4215082 55.7048476,22.4791652 C55.6428308,22.4459391 55.6127915,22.433235 55.4761609,22.154722 C55.4645327,22.216288 55.4461215,22.2710134 55.4344934,22.3257388 C55.4684088,22.5759119 55.1893335,22.7264066 55.2377841,22.9795115 C55.2465052,23.0625768 55.4810059,23.3567256 55.6302337,23.4505405 C55.6893434,23.3840883 55.739732,23.3186133 55.7891516,23.2492293 C55.8036867,23.2326163 55.823067,23.2032991 55.8434162,23.1886405 C55.9393483,23.1202338 55.99652,23.2326163 56.0178383,23.3293629 C56.078886,23.5433782 56.0314044,23.7613024 56.0449706,23.9704315 C56.0071791,23.8600035 55.9626046,23.7417577 55.9257822,23.628398 C55.9626046,23.7466439 56.0081482,23.8795483 56.0478776,24.0202707 C56.0701649,24.3437367 56.0701649,24.3437367 56.249432,24.5919553 C56.3007896,24.6789296 56.6447887,25.5291273 56.6544788,25.5379224 C56.6961463,25.6483504 56.6854872,25.7763687 56.7155265,25.8877739 C56.7513799,26.0216556 56.8356839,26.1359925 56.8744444,26.2640108 C56.8967316,26.3245996 56.9122358,26.4105966 56.922895,26.4731399 C56.9480893,26.5864996 56.9558413,26.6685876 56.9965398,27.3809946 C57.014951,27.7640722 56.9655315,29.3833568 56.7106814,29.5103978 C56.6835491,29.5309198 56.6631999,29.560237 56.6428506,29.580759" id="Fill-28" fill="#FFFFFF"></path>
                        <path d="M56.6862087,31.343911 C56.6862087,31.405911 56.6862087,31.405911 56.4962087,31.925911 C56.4252087,31.922911 56.3272087,31.911911 56.3142087,31.624911 C56.3062087,31.312911 56.4152087,31.140911 56.4682087,31.095911 C56.4802087,31.092911 56.4852087,31.086911 56.4932087,31.083911 C56.6652087,31.013911 56.6862087,31.340911 56.6862087,31.343911" id="Fill-30" fill="#00C8C3"></path>
                        <polygon id="Fill-32" fill="#00C8C3" points="34.4975 19.5015 34.5025 19.4985 34.4975 19.4985"></polygon>
                        <path d="M42.490085,13.3958832 C42.082153,13.5251316 41.2866856,12.4174246 41.0453258,12 C41.0419263,12.0670177 41.0124646,12.1215893 41,12.1828626 C41.4464589,12.6462422 41.9813031,13.3384394 42.490085,14 C42.490085,13.8678794 42.3858357,13.7338439 42.4832861,13.6007659 C42.6430595,13.5710866 42.8050992,13.6007659 42.9648725,13.5950215 C42.9716714,13.5835328 42.9898017,13.5710866 43,13.5595979 C42.7937677,13.3039732 42.607932,13.3604596 42.490085,13.3958832" id="Fill-34" fill="#00C8C3"></path>
                    </g>
                </g>
            </g>
        </g>
    </g>
</svg>