<?xml version="1.0" encoding="UTF-8"?>
<svg width="45px" height="64px" viewBox="0 0 45 64" version="1.1" xmlns="http://www.w3.org/2000/svg" xmlns:xlink="http://www.w3.org/1999/xlink">
    <!-- Generator: Sketch 55 (78076) - https://sketchapp.com -->
    <title>Group 5</title>
    <desc>Created with Sketch.</desc>
    <g id="Page-1" stroke="none" stroke-width="1" fill="none" fill-rule="evenodd">
        <g id="01-full-page-desktop" transform="translate(-1058.000000, -1038.000000)" fill="#00C8C3">
            <g id="Section-1-Module" transform="translate(125.000000, 750.000000)">
                <g id="Group-22" transform="translate(105.000000, 288.000000)">
                    <g id="Group-5" transform="translate(828.000000, 0.000000)">
                        <path d="M29.1774366,64 L17.9274366,64 L17.9274366,57.5093333 C9.60398387,56.456 3.47610861,52.2053333 0.5495613,45.4853333 L0,44.2053333 L10.4256581,39.7706667 L11.0205715,41.0506667 C12.4398269,44.5253333 17.6073038,47.1786667 22.9561892,47.1786667 C25.2878231,47.1786667 33.0643823,46.7653333 33.0643823,41.3253333 C33.0643823,38.5813333 29.6336258,36.8453333 22.5907043,35.976 C14.6327365,35.1093333 2.51304245,33.784 2.51304245,20.8 C2.51304245,12.984 8.27810055,7.544 17.9274366,5.944 L17.9274366,0 L29.1774366,0 L29.1774366,5.98933333 C33.75,6.856 39.6057624,8.96 42.8977946,15.7253333 L43.5380602,17.0053333 L33.9340764,21.44 L33.291143,20.344 C31.8292032,17.92 27.3019919,15.9546667 23.2309699,15.9546667 C20.4431468,15.9546667 14.0404909,16.456 14.0404909,20.8 C14.0404909,23.68 17.1511145,24.5493333 23.6444747,25.28 C32.149336,26.3786667 45,27.9306667 45,41.3253333 C45,51.016 37.2261086,56.2293333 29.1774366,57.2346667 L29.1774366,64 Z" id="Fill-3"></path>
                    </g>
                </g>
            </g>
        </g>
    </g>
</svg>